# File created by Blade
# Date/Time:  Tue Jan 27 17:01:45 2015
#---------------------------------------------------------
:version 1.10
:name HOM
:units
  mass 1.0
  length 1.000000
  angle deg
:documentation
     Acclaim Skeleton File
:root
   axis xyz
   order TX TY TZ RX RY RZ
   position 0.000000 0.000000 0.000000
   orientation 0 0 0
:bonedata
   begin
      id 1
      name Spine_dum
      direction 0.000000 1.000000 0.000000
      length 7.539951
      axis 0.0 0.0 0.0 xyz
   end
   begin
      id 2
      name LeftUpLeg_dum
      direction 1.000000 0.000000 0.000000
      length 3.345476
      axis 0.0 0.0 0.0 xyz
   end
   begin
      id 3
      name RightUpLeg_dum
      direction -1.000000 0.000000 0.000000
      length 3.345476
      axis 0.0 0.0 0.0 xyz
   end
   begin
      id 4
      name Spine
      direction 0.000000 1.000000 0.000000
      length 0.000000
      axis 0.0 0.0 0.0 xyz
      dof rx ry rz
   end
   begin
      id 5
      name Spine_dum1
      direction 0.000000 1.000000 0.000000
      length 15.093809
      axis 0.0 0.0 0.0 xyz
   end
   begin
      id 6
      name Spine_dum2
      direction 0.000000 1.000000 0.000000
      length 9.738928
      axis 0.0 0.0 0.0 xyz
   end
   begin
      id 7
      name Spine_dum3
      direction 0.000000 1.000000 0.000000
      length 9.738928
      axis 0.0 0.0 0.0 xyz
   end
   begin
      id 8
      name Head
      direction 0.000000 1.000000 0.000000
      length 4.527550
      axis 0.0 0.0 0.0 xyz
      dof rx ry rz
   end
   begin
      id 9
      name LeftShoulder
      direction 1.000000 0.000000 0.000000
      length 7.084015
      axis 0.0 0.0 -90.0 xyz
      dof rx ry rz
   end
   begin
      id 10
      name LeftArm
      direction 1.000000 0.000000 0.000000
      length 10.259319
      axis 0.0 0.0 -90.0 xyz
      dof rx ry rz
   end
   begin
      id 11
      name LeftForeArm
      direction 1.000000 0.000000 0.000000
      length 9.896984
      axis 0.0 0.0 -90.0 xyz
      dof ry rz rx
   end
   begin
      id 12
      name LeftHand
      direction 0.000000 0.000000 0.000000
      length 0.000000
      axis 0.0 0.0 -90.0 xyz
      dof rx ry rz
   end
   begin
      id 13
      name LeftHand_dum1
      direction 0.000000 0.000000 0.000000
      length 0.000000
      axis 0.0 0.0 -90.0 xyz
   end
   begin
      id 14
      name LeftHand_dum2
      direction 1.000000 0.000000 0.000000
      length 3.937000
      axis 0.0 0.0 -90.0 xyz
   end
   begin
      id 15
      name LeftHandThumb1
      direction 0.000000 0.000000 1.000000
      length 3.937000
      axis 0.0 0.0 -90.0 xyz
      dof rx rz ry
   end
   begin
      id 16
      name RightShoulder
      direction -1.000000 0.000000 0.000000
      length 7.084015
      axis 0.0 0.0 90.0 xyz
      dof rx ry rz
   end
   begin
      id 17
      name RightArm
      direction -1.000000 0.000000 0.000000
      length 10.259319
      axis 0.0 0.0 90.0 xyz
      dof rx ry rz
   end
   begin
      id 18
      name RightForeArm
      direction -1.000000 0.000000 0.000000
      length 9.896984
      axis 0.0 0.0 90.0 xyz
      dof ry rz rx
   end
   begin
      id 19
      name RightHand
      direction 0.000000 0.000000 0.000000
      length 0.000000
      axis 0.0 0.0 90.0 xyz
      dof rx ry rz
   end
   begin
      id 20
      name RightHand_dum1
      direction 0.000000 0.000000 0.000000
      length 0.000000
      axis 0.0 0.0 90.0 xyz
   end
   begin
      id 21
      name RightHand_dum2
      direction -1.000000 0.000000 0.000000
      length 3.937000
      axis 0.0 0.0 90.0 xyz
   end
   begin
      id 22
      name RightHandThumb1
      direction 0.000000 0.000000 1.000000
      length 3.937000
      axis 0.0 0.0 90.0 xyz
      dof rx rz ry
   end
   begin
      id 23
      name LeftUpLeg
      direction 0.000000 -1.000000 0.000000
      length 19.114733
      axis 0.0 0.0 0.0 xyz
      dof rx ry rz
   end
   begin
      id 24
      name LeftLeg
      direction 0.000000 -1.000000 0.000000
      length 16.045604
      axis 0.0 0.0 0.0 xyz
      dof rx ry rz
   end
   begin
      id 25
      name LeftFoot
      direction 0.000000 -0.258819 0.965926
      length 5.543155
      axis 15.0 0.0 0.0 xyz
      dof rx ry rz
   end
   begin
      id 26
      name LeftToeBase
      direction 0.000000 0.000000 1.000000
      length 2.952750
      axis 0.0 0.0 0.0 xyz
      dof rx ry rz
   end
   begin
      id 27
      name RightUpLeg
      direction 0.000000 -1.000000 0.000000
      length 19.114733
      axis 0.0 0.0 0.0 xyz
      dof rx ry rz
   end
   begin
      id 28
      name RightLeg
      direction 0.000000 -1.000000 0.000000
      length 16.045604
      axis 0.0 0.0 0.0 xyz
      dof rx ry rz
   end
   begin
      id 29
      name RightFoot
      direction 0.000000 -0.258819 0.965926
      length 5.543155
      axis 15.0 0.0 0.0 xyz
      dof rx ry rz
   end
   begin
      id 30
      name RightToeBase
      direction 0.000000 0.000000 1.000000
      length 2.952750
      axis 0.0 0.0 0.0 xyz
      dof rx ry rz
   end
:hierarchy
   begin
      root Spine_dum LeftUpLeg_dum RightUpLeg_dum
      Spine_dum Spine
      LeftUpLeg_dum LeftUpLeg
      RightUpLeg_dum RightUpLeg
      Spine Spine_dum1 Spine_dum2 Spine_dum3
      Spine_dum1 Head
      Spine_dum2 LeftShoulder
      Spine_dum3 RightShoulder
      LeftShoulder LeftArm
      LeftArm LeftForeArm
      LeftForeArm LeftHand
      LeftHand LeftHand_dum1 LeftHand_dum2
      LeftHand_dum1 LeftHandThumb1
      RightShoulder RightArm
      RightArm RightForeArm
      RightForeArm RightHand
      RightHand RightHand_dum1 RightHand_dum2
      RightHand_dum1 RightHandThumb1
      LeftUpLeg LeftLeg
      LeftLeg LeftFoot
      LeftFoot LeftToeBase
      RightUpLeg RightLeg
      RightLeg RightFoot
      RightFoot RightToeBase
   end

# File created by Blade
# Date/Time:  Tue Jan 27 17:01:38 2015
# Frame Rate: 120.000 fps
#------------------------------------------------------
:FULLY-SPECIFIED
:DEGREES
2416
root -1.331126 36.850928 5.285396 7.707428 9.783700 0.143379
Spine -5.591508 11.818269 -5.617172
Head 3.821257 11.882554 -0.467447
LeftShoulder -4.750734 -8.815722 -5.250679
LeftArm -8.167384 -44.781419 -55.251021
LeftForeArm -64.576982 0.000000 91.482460
LeftHand 4.210845 0.000000 -6.310750
LeftHandThumb1 -26.253704 0.000000 33.147579
RightShoulder -0.857025 -22.543259 -2.980610
RightArm 25.217272 -31.943326 54.395665
RightForeArm -147.607782 0.000000 34.497812
RightHand -1.847979 0.000000 -1.836442
RightHandThumb1 -24.326973 -0.000000 -32.862282
LeftUpLeg -6.773977 8.020406 5.026386
LeftLeg 7.314658 -0.000000 -0.000000
LeftFoot -14.071511 -0.313636 -20.654453
LeftToeBase 15.082997 -0.000000 -0.000000
RightUpLeg -6.287677 -14.612600 -0.127434
RightLeg 11.036590 -0.000000 -0.000000
RightFoot -18.640762 -7.787074 15.318189
RightToeBase 10.970361 -0.000000 -0.000000
2417
root -1.327663 36.850108 5.286852 7.682262 9.724079 0.140378
Spine -5.584976 11.825772 -5.653624
Head 3.806364 11.870260 -0.465918
LeftShoulder -4.794732 -8.764112 -5.246888
LeftArm -8.158579 -44.989073 -55.079498
LeftForeArm -64.025537 -0.000000 94.026725
LeftHand 4.383723 -0.000000 -6.388198
LeftHandThumb1 -26.253704 0.000000 33.147579
RightShoulder -0.862436 -22.521527 -2.972136
RightArm 25.192111 -31.926110 54.432718
RightForeArm -147.595916 -0.000000 34.555227
RightHand -1.861583 -0.000000 -1.795972
RightHandThumb1 -24.326973 -0.000000 -32.862282
LeftUpLeg -6.736373 8.037280 5.023227
LeftLeg 7.319403 -0.000000 -0.000000
LeftFoot -14.101756 -0.282155 -20.657138
LeftToeBase 15.081783 -0.000000 -0.000000
RightUpLeg -6.287431 -14.624962 -0.139203
RightLeg 11.086509 -0.000000 -0.000000
RightFoot -18.632066 -7.774521 15.265513
RightToeBase 10.897813 -0.000000 -0.000000
2418
root -1.327552 36.850725 5.289186 7.662914 9.667876 0.115921
Spine -5.596222 11.834808 -5.678015
Head 3.811707 11.857604 -0.428320
LeftShoulder -4.844488 -8.692852 -5.231207
LeftArm -8.126776 -45.170973 -54.951125
LeftForeArm -63.316964 0.000000 96.537374
LeftHand 4.574474 -0.000000 -6.506636
LeftHandThumb1 -26.253704 0.000000 33.147579
RightShoulder -0.880433 -22.532169 -2.929808
RightArm 25.197586 -31.896265 54.427017
RightForeArm -147.577419 0.000000 34.602536
RightHand -1.901362 -0.000000 -1.829629
RightHandThumb1 -24.326973 -0.000000 -32.862282
LeftUpLeg -6.705895 8.057909 5.047175
LeftLeg 7.318550 -0.000000 -0.000000
LeftFoot -14.119795 -0.265578 -20.696633
LeftToeBase 15.088838 -0.000000 -0.000000
RightUpLeg -6.247656 -14.573053 -0.129440
RightLeg 11.027021 -0.000000 -0.000000
RightFoot -18.614113 -7.723692 15.304568
RightToeBase 10.968017 -0.000000 -0.000000
2419
root -1.325228 36.850581 5.289571 7.644098 9.620187 0.100128
Spine -5.603490 11.837941 -5.696985
Head 3.819216 11.837858 -0.416478
LeftShoulder -4.878959 -8.617883 -5.206452
LeftArm -8.078974 -45.386841 -54.855009
LeftForeArm -62.434695 -0.000000 98.942313
LeftHand 4.956951 -0.000000 -6.688928
LeftHandThumb1 -26.253704 0.000000 33.147579
RightShoulder -0.878270 -22.523040 -2.906853
RightArm 25.174010 -31.900275 54.418967
RightForeArm -147.528393 -0.000000 34.670344
RightHand -1.896930 0.000000 -1.765248
RightHandThumb1 -24.326973 -0.000000 -32.862282
LeftUpLeg -6.683559 8.063112 5.058871
LeftLeg 7.330993 -0.000000 -0.000000
LeftFoot -14.158908 -0.229737 -20.703355
LeftToeBase 15.094661 -0.000000 -0.000000
RightUpLeg -6.228044 -14.565784 -0.128920
RightLeg 11.013434 -0.000000 -0.000000
RightFoot -18.571240 -7.656843 15.257362
RightToeBase 10.986360 -0.000000 -0.000000
2420
root -1.322289 36.850516 5.291386 7.620674 9.554160 0.086313
Spine -5.603673 11.860385 -5.706705
Head 3.827045 11.830373 -0.441964
LeftShoulder -4.924518 -8.570146 -5.186830
LeftArm -8.039302 -45.725053 -54.706845
LeftForeArm -61.869686 -0.000000 101.259620
LeftHand 4.829978 -0.000000 -7.053699
LeftHandThumb1 -26.253704 0.000000 33.147579
RightShoulder -0.894497 -22.441189 -2.900105
RightArm 25.103375 -31.937796 54.472735
RightForeArm -147.522290 -0.000000 34.698467
RightHand -1.927254 0.000000 -1.840601
RightHandThumb1 -24.326973 -0.000000 -32.862282
LeftUpLeg -6.650115 8.104100 5.064337
LeftLeg 7.339963 -0.000000 -0.000000
LeftFoot -14.189300 -0.203788 -20.678729
LeftToeBase 15.090596 -0.000000 -0.000000
RightUpLeg -6.209159 -14.552891 -0.133032
RightLeg 11.017526 -0.000000 -0.000000
RightFoot -18.544288 -7.656371 15.231947
RightToeBase 10.929168 -0.000000 -0.000000
2421
root -1.318636 36.850509 5.292219 7.602755 9.521986 0.076594
Spine -5.607263 11.844584 -5.719623
Head 3.814256 11.838217 -0.438436
LeftShoulder -4.965045 -8.534521 -5.162097
LeftArm -7.990687 -45.944293 -54.572638
LeftForeArm -61.143000 -0.000000 103.495220
LeftHand 4.975917 -0.000000 -7.163186
LeftHandThumb1 -26.253704 0.000000 33.147579
RightShoulder -0.896818 -22.528504 -2.864758
RightArm 25.174684 -31.890609 54.407958
RightForeArm -147.498078 -0.000000 34.751458
RightHand -1.968899 -0.000000 -1.822872
RightHandThumb1 -24.326973 -0.000000 -32.862282
LeftUpLeg -6.630459 8.085087 5.070160
LeftLeg 7.354096 -0.000000 -0.000000
LeftFoot -14.230097 -0.164556 -20.698080
LeftToeBase 15.112411 -0.000000 -0.000000
RightUpLeg -6.191181 -14.588324 -0.136971
RightLeg 11.007776 -0.000000 -0.000000
RightFoot -18.522558 -7.591448 15.246490
RightToeBase 10.929628 -0.000000 -0.000000
